<?xml version="1.0" encoding="utf-8"?><svg viewBox="0 0 212 74" xmlns="http://www.w3.org/2000/svg" xmlns:xlink="http://www.w3.org/1999/xlink"><style>:root>svg{display:none}:root>svg:target{display:block}</style><svg viewBox="0 0 64 64" id="aug-1" xmlns="http://www.w3.org/2000/svg"><g clip-path="url(#aa)"><path d="M55.672 43.013a5.635 5.635 0 00-4.717-2.48h-3.567L59.56 21.917a1.067 1.067 0 10-1.786-1.167L39.956 48H24.044L6.226 20.75a1.067 1.067 0 10-1.785 1.167l12.171 18.616h-3.567a5.635 5.635 0 00-4.719 2.485L.533 54.804A3.031 3.031 0 000 56.534V60.8A3.2 3.2 0 003.2 64h57.6a3.2 3.2 0 003.2-3.2v-4.267a3.015 3.015 0 00-.533-1.718l-7.795-11.802zm-38.974-.346h1.31l4.566 6.983c.197.302.533.483.893.483h17.066c.36 0 .696-.181.893-.483l4.567-6.983h2.375l1.013 2.32-.326.163a3.221 3.221 0 00-1.6 3.88l1.14 3.42a3.183 3.183 0 002.512 2.15l2.672.447L54.9 57.6H10.164l6.534-14.933zM2.308 55.99l7.796-11.793a3.507 3.507 0 012.941-1.53h1.324L7.836 57.6H3.328a1.136 1.136 0 01-1.195-1.067.947.947 0 01.175-.543zm59.559 4.81c0 .59-.478 1.067-1.067 1.067H3.2c-.59 0-1.067-.478-1.067-1.067v-1.288c.382.144.787.22 1.195.221h57.344a3.414 3.414 0 001.195-.221V60.8zm-1.195-3.2h-3.441l-1.737-3.958a1.067 1.067 0 00-.977-.64l-3.059-.51a1.067 1.067 0 01-.835-.713l-1.142-3.427a1.067 1.067 0 01.533-1.297l.928-.464a1.067 1.067 0 00.82-1.482l-1.066-2.442h.258a3.507 3.507 0 012.94 1.526L61.698 56c.11.157.168.343.168.533a1.136 1.136 0 01-1.195 1.067z"/><path d="M30.933 19.2a1.067 1.067 0 002.134 0v-2.56l3.705-1.992a1.067 1.067 0 00-1.01-1.879L32 14.79l-3.761-2.026a1.067 1.067 0 10-1.011 1.88l3.705 1.997v2.56z"/><path d="M17.628 24.405l13.867 7.467c.315.17.695.17 1.01 0l13.867-7.467c.346-.186.561-.546.562-.938V8.533c0-.375-.198-.722-.52-.915-.014-.008-.03-.012-.045-.02L32.503.133a1.067 1.067 0 00-1.012 0L17.625 7.6c-.015.007-.031.01-.045.02-.32.193-.514.54-.513.914v14.934c0 .392.216.752.561.938zM19.2 10.318l2.695 1.448a1.067 1.067 0 001.01-1.88l-2.52-1.353L32 2.278l11.615 6.255-2.52 1.355a1.067 1.067 0 001.01 1.88l2.695-1.45v12.509l-11.733 6.32V25.6a1.067 1.067 0 00-2.133 0v3.548L19.2 22.827v-12.51z"/></g><defs><linearGradient id="ab" x1="64" y1="39.441" x2="0" y2="39.441" gradientUnits="userSpaceOnUse"><stop stop-color="#9281CE"/><stop offset="1" stop-color="#68DBFF"/></linearGradient><linearGradient id="ac" x1="37.334" y1="15.982" x2="26.666" y2="15.982" gradientUnits="userSpaceOnUse"><stop stop-color="#9281CE"/><stop offset="1" stop-color="#68DBFF"/></linearGradient><linearGradient id="ad" x1="46.934" y1="14.037" x2="17.067" y2="14.037" gradientUnits="userSpaceOnUse"><stop stop-color="#9281CE"/><stop offset="1" stop-color="#68DBFF"/></linearGradient><clipPath id="aa"><path d="M0 0h64v64H0z"/></clipPath></defs></svg><svg viewBox="0 0 64 64" id="aug-2" xmlns="http://www.w3.org/2000/svg"><g clip-path="url(#ba)"><path d="M28.566 41.744a1.067 1.067 0 00-1.01 1.878l3.377 1.818v2.316a1.067 1.067 0 002.133 0V45.44l3.377-1.813a1.067 1.067 0 10-1.01-1.879L32 43.59l-3.434-1.845zM7.467 4.267H5.333a1.067 1.067 0 000 2.133h2.134a1.067 1.067 0 000-2.133zM11.733 6.4h8.534a1.067 1.067 0 000-2.133h-8.534a1.067 1.067 0 000 2.133zM7.467 8.533H5.333a1.067 1.067 0 100 2.134h2.134a1.067 1.067 0 000-2.134zM11.733 10.667h8.534a1.067 1.067 0 000-2.134h-8.534a1.067 1.067 0 100 2.134zM7.467 12.8H5.333a1.067 1.067 0 000 2.133h2.134a1.067 1.067 0 100-2.133zM20.267 12.8h-8.534a1.067 1.067 0 000 2.133h8.534a1.067 1.067 0 100-2.133z"/><path d="M59.733 0H42.667A4.267 4.267 0 0038.4 4.267v4.266h-4.267a3.2 3.2 0 00-3.2 3.2V25.6H13.867v-6.4h7.466a4.267 4.267 0 004.267-4.267V4.267A4.267 4.267 0 0021.333 0H4.267A4.267 4.267 0 000 4.267v10.666A4.267 4.267 0 004.267 19.2h7.466v6.4H4.267A4.267 4.267 0 000 29.867v29.866A4.267 4.267 0 004.267 64h55.466A4.267 4.267 0 0064 59.733V29.867a4.267 4.267 0 00-4.267-4.267H33.067V11.733c0-.589.477-1.066 1.066-1.066H38.4v4.266a4.267 4.267 0 004.267 4.267h17.066A4.267 4.267 0 0064 14.933V4.267A4.267 4.267 0 0059.733 0zM33.067 32.801l9.481 5.106-2.192 1.174a1.067 1.067 0 001.01 1.879l2.367-1.268v11.363l-10.666 5.744v-3.137a1.067 1.067 0 00-2.134 0v3.137l-10.666-5.744V48h1.263a3.2 3.2 0 100-2.133h-1.263v-6.175l2.367 1.268a1.067 1.067 0 001.01-1.88l-2.192-1.173 9.481-5.106v1.529a3.2 3.2 0 102.134 0V32.8zm-9.6 14.132a1.067 1.067 0 112.133 0 1.067 1.067 0 01-2.133 0zM32 36.267a1.067 1.067 0 110 2.133 1.067 1.067 0 010-2.133zm-1.067-8.534v2.646l-12.239 6.59c-.014.007-.03.01-.044.019-.323.192-.52.54-.52.916v7.963h-3.197a1.067 1.067 0 01-1.066-1.067V27.733h17.066zM4.267 17.067a2.133 2.133 0 01-2.134-2.134V4.267c0-1.179.955-2.134 2.134-2.134h17.066c1.179 0 2.134.955 2.134 2.134v10.666a2.133 2.133 0 01-2.134 2.134H4.267zM2.133 36.595l1.46 1.368c.43.404.673.967.674 1.557v10.56c0 .59-.244 1.153-.674 1.556l-1.46 1.368V36.595zm55.94-8.862h1.66c1.178 0 2.134.956 2.134 2.134v29.866a2.133 2.133 0 01-2.134 2.134h-1.66a4.223 4.223 0 00.594-2.134V29.867a4.223 4.223 0 00-.593-2.134zm-3.673 0c1.178 0 2.133.956 2.133 2.134v29.866a2.133 2.133 0 01-2.133 2.134H4.267a2.133 2.133 0 01-2.134-2.134V55.93l2.918-2.735A4.28 4.28 0 006.4 50.08V39.52a4.28 4.28 0 00-1.35-3.114l-2.917-2.734v-3.805c0-1.178.955-2.134 2.134-2.134h7.466V44.8a3.2 3.2 0 003.2 3.2h3.2v3.692c0 .392.216.753.561.94l12.8 6.891c.316.17.696.17 1.012 0l12.8-6.892c.345-.186.56-.547.56-.94V37.909c0-.375-.196-.723-.519-.916-.014-.008-.03-.012-.045-.02L33.067 30.38v-2.646H54.4zm7.467-12.8a2.133 2.133 0 01-2.134 2.134H42.667a2.133 2.133 0 01-2.134-2.134V4.267c0-1.179.956-2.134 2.134-2.134h17.066c1.178 0 2.134.955 2.134 2.134v10.666z"/><path d="M45.867 4.267h-2.134a1.067 1.067 0 000 2.133h2.134a1.067 1.067 0 000-2.133zM58.667 4.267h-8.533a1.067 1.067 0 000 2.133h8.533a1.067 1.067 0 000-2.133zM45.867 8.533h-2.134a1.067 1.067 0 100 2.134h2.134a1.067 1.067 0 000-2.134zM58.667 8.533h-8.533a1.067 1.067 0 100 2.134h8.533a1.067 1.067 0 000-2.134zM45.867 12.8h-2.134a1.067 1.067 0 000 2.133h2.134a1.067 1.067 0 100-2.133zM58.667 12.8h-8.533a1.067 1.067 0 000 2.133h8.533a1.067 1.067 0 100-2.133zM44.8 57.6h-2.133a1.067 1.067 0 100 2.133H44.8a1.067 1.067 0 000-2.133zM53.333 57.6h-4.266a1.067 1.067 0 100 2.133h4.266a1.067 1.067 0 000-2.133zM48 55.467h5.333a1.067 1.067 0 100-2.134H48a1.067 1.067 0 000 2.134zM11.733 51.2H9.6c-.59 0-1.067.478-1.067 1.067v1.066a1.067 1.067 0 002.133 0h1.067a1.067 1.067 0 100-2.133zM11.733 57.6h-1.067a1.067 1.067 0 10-2.133 0v1.067c0 .589.478 1.066 1.067 1.066h2.133a1.067 1.067 0 100-2.133zM19.2 56.533c-.59 0-1.067.478-1.067 1.067h-1.066a1.067 1.067 0 000 2.133H19.2c.59 0 1.067-.477 1.067-1.066V57.6c0-.59-.478-1.067-1.067-1.067z"/></g><defs><linearGradient id="bb" x1="37.026" y1="44.773" x2="27.016" y2="44.773" gradientUnits="userSpaceOnUse"><stop stop-color="#9281CE"/><stop offset="1" stop-color="#68DBFF"/></linearGradient><linearGradient id="bc" x1="8.533" y1="5.202" x2="4.267" y2="5.202" gradientUnits="userSpaceOnUse"><stop stop-color="#9281CE"/><stop offset="1" stop-color="#68DBFF"/></linearGradient><linearGradient id="bd" x1="21.333" y1="5.202" x2="10.666" y2="5.202" gradientUnits="userSpaceOnUse"><stop stop-color="#9281CE"/><stop offset="1" stop-color="#68DBFF"/></linearGradient><linearGradient id="be" x1="8.533" y1="9.469" x2="4.267" y2="9.469" gradientUnits="userSpaceOnUse"><stop stop-color="#9281CE"/><stop offset="1" stop-color="#68DBFF"/></linearGradient><linearGradient id="bf" x1="21.333" y1="9.469" x2="10.666" y2="9.469" gradientUnits="userSpaceOnUse"><stop stop-color="#9281CE"/><stop offset="1" stop-color="#68DBFF"/></linearGradient><linearGradient id="bg" x1="8.533" y1="13.736" x2="4.267" y2="13.736" gradientUnits="userSpaceOnUse"><stop stop-color="#9281CE"/><stop offset="1" stop-color="#68DBFF"/></linearGradient><linearGradient id="bh" x1="21.333" y1="13.736" x2="10.666" y2="13.736" gradientUnits="userSpaceOnUse"><stop stop-color="#9281CE"/><stop offset="1" stop-color="#68DBFF"/></linearGradient><linearGradient id="bi" x1="64" y1="28.07" x2="0" y2="28.07" gradientUnits="userSpaceOnUse"><stop stop-color="#9281CE"/><stop offset="1" stop-color="#68DBFF"/></linearGradient><linearGradient id="bj" x1="46.933" y1="5.202" x2="42.666" y2="5.202" gradientUnits="userSpaceOnUse"><stop stop-color="#9281CE"/><stop offset="1" stop-color="#68DBFF"/></linearGradient><linearGradient id="bk" x1="59.734" y1="5.202" x2="49.067" y2="5.202" gradientUnits="userSpaceOnUse"><stop stop-color="#9281CE"/><stop offset="1" stop-color="#68DBFF"/></linearGradient><linearGradient id="bl" x1="46.933" y1="9.469" x2="42.666" y2="9.469" gradientUnits="userSpaceOnUse"><stop stop-color="#9281CE"/><stop offset="1" stop-color="#68DBFF"/></linearGradient><linearGradient id="bm" x1="59.734" y1="9.469" x2="49.067" y2="9.469" gradientUnits="userSpaceOnUse"><stop stop-color="#9281CE"/><stop offset="1" stop-color="#68DBFF"/></linearGradient><linearGradient id="bn" x1="46.933" y1="13.736" x2="42.666" y2="13.736" gradientUnits="userSpaceOnUse"><stop stop-color="#9281CE"/><stop offset="1" stop-color="#68DBFF"/></linearGradient><linearGradient id="bo" x1="59.734" y1="13.736" x2="49.067" y2="13.736" gradientUnits="userSpaceOnUse"><stop stop-color="#9281CE"/><stop offset="1" stop-color="#68DBFF"/></linearGradient><linearGradient id="bp" x1="45.867" y1="58.536" x2="41.6" y2="58.536" gradientUnits="userSpaceOnUse"><stop stop-color="#9281CE"/><stop offset="1" stop-color="#68DBFF"/></linearGradient><linearGradient id="bq" x1="54.4" y1="58.536" x2="48" y2="58.536" gradientUnits="userSpaceOnUse"><stop stop-color="#9281CE"/><stop offset="1" stop-color="#68DBFF"/></linearGradient><linearGradient id="br" x1="54.4" y1="54.269" x2="46.933" y2="54.269" gradientUnits="userSpaceOnUse"><stop stop-color="#9281CE"/><stop offset="1" stop-color="#68DBFF"/></linearGradient><linearGradient id="bs" x1="12.8" y1="52.603" x2="8.533" y2="52.603" gradientUnits="userSpaceOnUse"><stop stop-color="#9281CE"/><stop offset="1" stop-color="#68DBFF"/></linearGradient><linearGradient id="bt" x1="12.8" y1="57.937" x2="8.533" y2="57.937" gradientUnits="userSpaceOnUse"><stop stop-color="#9281CE"/><stop offset="1" stop-color="#68DBFF"/></linearGradient><linearGradient id="bu" x1="20.267" y1="57.937" x2="16" y2="57.937" gradientUnits="userSpaceOnUse"><stop stop-color="#9281CE"/><stop offset="1" stop-color="#68DBFF"/></linearGradient><clipPath id="ba"><path d="M0 0h64v64H0z"/></clipPath></defs></svg><svg viewBox="0 0 64 64" id="aug-3" xmlns="http://www.w3.org/2000/svg"><path d="M28.049 3.22h-3.895a.937.937 0 100 1.875h3.895a.937.937 0 100-1.875zM20.677 3.237a.938.938 0 10.369 1.84.938.938 0 00-.369-1.84zM25.05 54.54h-1.365a.937.937 0 100 1.875h1.365a.937.937 0 100-1.875z"/><path d="M56.542 19.07a.937.937 0 10-1.695.8 5.135 5.135 0 01-4.642 7.315c-2.931 0-5.35-2.49-5.114-5.534v-.001a5.137 5.137 0 017.078-4.336.937.937 0 10.718-1.732 6.964 6.964 0 00-2.683-.533c-3.379 0-6.207 2.404-6.863 5.592h-1.24V6.748A6.756 6.756 0 0035.355 0H13.538A6.756 6.756 0 006.79 6.748V13.8a.937.937 0 101.875 0V6.75a4.88 4.88 0 014.873-4.874h21.816a4.879 4.879 0 014.873 4.873v13.893h-1.344V6.75a3.533 3.533 0 00-3.53-3.53h-2.718a1.91 1.91 0 00-1.907 1.907v.616a.57.57 0 01-.563.562H18.727a.57.57 0 01-.563-.562v-.616a1.91 1.91 0 00-1.907-1.907h-2.719a3.533 3.533 0 00-3.529 3.53v50.5a3.533 3.533 0 003.53 3.53h21.815a3.533 3.533 0 003.529-3.53v-2.758a.937.937 0 10-1.875 0v2.758c0 .912-.742 1.654-1.654 1.654H13.538a1.656 1.656 0 01-1.654-1.654V6.75c0-.912.742-1.654 1.654-1.654h2.72c.017 0 .031.014.031.031v.616a2.44 2.44 0 002.438 2.437h11.438a2.44 2.44 0 002.438-2.437v-.615c0-.018.014-.032.032-.032h2.72c.91 0 1.653.742 1.653 1.654v13.89h-9.09l-.973-4.606a.937.937 0 00-.917-.744h-3.995a.937.937 0 100 1.875h3.235c.285 1.348 4.112 19.72 4.562 21.849.086.44.472.756.92.756h.334a2.524 2.524 0 00-.093.672 2.55 2.55 0 002.547 2.547 2.55 2.55 0 002.548-2.547c0-.233-.034-.458-.093-.672h1.015v10.347a.937.937 0 101.875 0V39.771h1.344v17.48a4.879 4.879 0 01-4.873 4.874H13.538a4.879 4.879 0 01-4.873-4.873V18.173a.937.937 0 10-1.875 0v39.078A6.756 6.756 0 0013.538 64h21.816a6.756 6.756 0 006.748-6.748V39.77h.93c-.06.214-.094.439-.094.672a2.55 2.55 0 002.547 2.547 2.55 2.55 0 002.548-2.547 2.549 2.549 0 00-2.451-2.542.955.955 0 00-.096-.005H31.52l-.437-2.207h15.78c.443 0 .826-.31.918-.744l1.264-5.982c.377.064.764.098 1.159.098a7.014 7.014 0 007.006-7.006 6.942 6.942 0 00-.668-2.986zm-11.056 20.7a.673.673 0 11-.002 1.347.673.673 0 01.002-1.346zm-11.948 0a.673.673 0 11-.001 1.347.673.673 0 01.001-1.346zm12.565-5.956h-15.4l-2.388-11.297h14.898a6.988 6.988 0 004.033 5.89l-1.143 5.407z"/><path d="M52.233 21.118h-1.091v-1.092a.937.937 0 10-1.875 0v1.092h-1.092a.937.937 0 100 1.875h1.092v1.091a.937.937 0 101.875 0v-1.091h1.091a.937.937 0 100-1.875zM21.266 20.642h-2.737a.937.937 0 100 1.875h2.737a.937.937 0 100-1.875zM22.235 25.032H19.5a.937.937 0 100 1.875h2.736a.937.937 0 100-1.875zM24.175 33.814H21.44a.937.937 0 100 1.875h2.736a.937.937 0 100-1.875zM23.205 29.423h-2.737a.937.937 0 100 1.875h2.737a.937.937 0 100-1.875zM28.314 43.846h-8.278a2.997 2.997 0 00-2.994 2.994 2.997 2.997 0 002.994 2.994h8.278a2.997 2.997 0 002.994-2.994 2.997 2.997 0 00-2.994-2.994zm0 4.113h-8.278a1.12 1.12 0 010-2.238h8.278a1.12 1.12 0 010 2.238z"/><defs><linearGradient id="ca" x1="28.986" y1="4.042" x2="23.216" y2="4.042" gradientUnits="userSpaceOnUse"><stop stop-color="#9281CE"/><stop offset="1" stop-color="#68DBFF"/></linearGradient><linearGradient id="cb" x1="21.799" y1="4.042" x2="19.924" y2="4.042" gradientUnits="userSpaceOnUse"><stop stop-color="#9281CE"/><stop offset="1" stop-color="#68DBFF"/></linearGradient><linearGradient id="cc" x1="25.987" y1="55.362" x2="22.747" y2="55.362" gradientUnits="userSpaceOnUse"><stop stop-color="#9281CE"/><stop offset="1" stop-color="#68DBFF"/></linearGradient><linearGradient id="cd" x1="57.21" y1="28.07" x2="6.79" y2="28.07" gradientUnits="userSpaceOnUse"><stop stop-color="#9281CE"/><stop offset="1" stop-color="#68DBFF"/></linearGradient><linearGradient id="ce" x1="53.171" y1="21.691" x2="47.238" y2="21.691" gradientUnits="userSpaceOnUse"><stop stop-color="#9281CE"/><stop offset="1" stop-color="#68DBFF"/></linearGradient><linearGradient id="cf" x1="22.203" y1="21.464" x2="17.591" y2="21.464" gradientUnits="userSpaceOnUse"><stop stop-color="#9281CE"/><stop offset="1" stop-color="#68DBFF"/></linearGradient><linearGradient id="cg" x1="23.173" y1="25.855" x2="18.561" y2="25.855" gradientUnits="userSpaceOnUse"><stop stop-color="#9281CE"/><stop offset="1" stop-color="#68DBFF"/></linearGradient><linearGradient id="ch" x1="25.113" y1="34.636" x2="20.501" y2="34.636" gradientUnits="userSpaceOnUse"><stop stop-color="#9281CE"/><stop offset="1" stop-color="#68DBFF"/></linearGradient><linearGradient id="ci" x1="24.143" y1="30.245" x2="19.531" y2="30.245" gradientUnits="userSpaceOnUse"><stop stop-color="#9281CE"/><stop offset="1" stop-color="#68DBFF"/></linearGradient><linearGradient id="cj" x1="31.308" y1="46.472" x2="17.042" y2="46.472" gradientUnits="userSpaceOnUse"><stop stop-color="#9281CE"/><stop offset="1" stop-color="#68DBFF"/></linearGradient></defs></svg><svg viewBox="0 0 73 74" id="burger" xmlns="http://www.w3.org/2000/svg"><path d="M18 30h36v2H18zm12.648 10h23.351v2H30.648z"/><circle cx="33" cy="41" r="31.5"/><circle cx="40" cy="33" r="31.5"/><circle cx="36" cy="36" r="31.5"/></svg><svg viewBox="0 0 212 56" id="logo" xmlns="http://www.w3.org/2000/svg"><path d="M170.518 32.97l-7.915-10.989c-1.201.14-2.261.21-3.251.21h-9.469v10.78h-2.403V.07h11.872c4.17 0 7.42.98 9.823 2.94 2.403 1.96 3.533 4.69 3.533 8.12 0 2.59-.706 4.76-2.049 6.58-1.343 1.75-3.251 3.01-5.795 3.71l8.268 11.48h-2.614v.07zm-11.166-12.879c3.534 0 6.219-.77 8.127-2.31 1.908-1.54 2.827-3.78 2.827-6.58 0-2.8-.919-5.04-2.827-6.58s-4.593-2.31-8.127-2.31h-9.469v17.85h9.469v-.07zM32.012.071l-14.77 32.9H14.77L0 .07h2.685l13.427 29.82L29.468.07h2.544zM66.356 17.291h17.666v-2.1h-20.14v17.78h22.896V30.8H66.285V17.29h.07zM63.953.071v2.17h22.896V.071H63.953zm125.151 0v2.17H212V.071h-22.896zm2.403 30.73V17.29h17.666v-2.1h-20.14v17.78H212V30.8h-20.493zM45.51.07L32.084 29.82l-5.442-11.97-1.272 2.94 5.441 12.11h2.403L47.984 0H45.51v.07zM7.279 50.68c0 .7-.283 1.26-.848 1.68-.566.42-1.343.56-2.474.56H0v-8.26h3.887c.989 0 1.766.21 2.332.56.565.35.848.91.848 1.54 0 .42-.142.84-.354 1.12-.212.28-.565.56-.989.7.99.42 1.555 1.05 1.555 2.1zM1.484 48.3h2.261c.566 0 .99-.07 1.343-.28.283-.21.424-.49.424-.91 0-.77-.565-1.19-1.767-1.19H1.484v2.38zM5.3 51.52c.283-.21.495-.49.495-.91 0-.42-.142-.77-.424-.98-.283-.21-.707-.28-1.343-.28H1.555v2.45h2.402c.566 0 1.06-.07 1.343-.28zm4.028-6.79h1.485v6.02l5.087-6.02h1.343v8.26H15.76v-6.02l-5.088 6.02H9.258v-8.26h.07zm16.82.49c.636.35 1.13.84 1.484 1.47.353.63.565 1.33.565 2.17 0 .84-.212 1.54-.565 2.17a3.73 3.73 0 01-1.484 1.47 4.42 4.42 0 01-2.191.56c-.565 0-1.13-.14-1.625-.35-.495-.21-.919-.56-1.272-.98V56h-1.484V44.73h1.413v1.33c.353-.42.777-.77 1.272-1.05.495-.21 1.06-.35 1.696-.35.777 0 1.555.21 2.19.56zm-.848 6.16c.424-.21.777-.56.989-1.05.212-.42.353-.98.353-1.54s-.141-1.05-.353-1.54c-.212-.42-.565-.77-.99-1.05a3.241 3.241 0 00-1.413-.35c-.494 0-.989.14-1.413.35-.424.21-.777.56-.99 1.05-.211.42-.353.91-.353 1.54 0 .56.142 1.05.354 1.54.212.42.565.77.989 1.05.424.28.919.35 1.413.35.495 0 .99-.07 1.414-.35zm10.88-5.32h-3.038v6.93h-1.484v-6.93h-3.039v-1.33h7.562v1.33zm10.248-1.33l-4.027 9.03c-.354.84-.778 1.4-1.273 1.75-.494.35-1.06.49-1.696.49a3.62 3.62 0 01-1.2-.21c-.354-.14-.707-.35-.92-.56l.637-1.12c.424.42.918.63 1.483.63.354 0 .636-.07.92-.28.211-.21.494-.49.635-.98l.283-.56-3.675-8.19h1.555l2.897 6.58 2.898-6.58h1.483zm7.209.77c.636.56.919 1.4.919 2.52v4.97h-1.414v-1.12c-.282.35-.636.7-1.06.91-.494.21-.989.28-1.625.28-.919 0-1.696-.21-2.261-.7-.566-.42-.848-1.05-.848-1.75s.282-1.33.777-1.75c.565-.42 1.413-.63 2.544-.63h2.403v-.28c0-.63-.212-1.12-.566-1.47-.353-.35-.918-.49-1.696-.49-.494 0-.989.07-1.413.21a3.26 3.26 0 00-1.201.63l-.636-1.12c.424-.35.918-.63 1.554-.77s1.202-.28 1.908-.28c1.131 0 1.979.28 2.615.84zm-1.484 6.02c.424-.28.707-.63.919-1.05v-1.12H50.74c-1.272 0-1.908.42-1.908 1.26 0 .42.141.77.494.98.354.21.778.35 1.343.35s1.06-.14 1.484-.42zm11.941-6.79v8.26H62.61v-6.93h-3.604l-.07 1.82c-.072 1.12-.142 2.03-.284 2.8-.14.77-.353 1.33-.706 1.75-.354.42-.778.7-1.414.7-.282 0-.565-.07-.918-.14l.07-1.26c.142 0 .283.07.354.07.424 0 .706-.21.918-.56.212-.35.354-.77.424-1.26.071-.49.142-1.19.142-2.1l.141-3.01h6.43v-.14zm8.833 3.5c.566.49.848 1.12.848 1.96 0 .91-.282 1.54-.919 2.03-.635.49-1.483.7-2.543.7h-3.605v-8.26h1.484v2.8h2.333c1.06.07 1.837.35 2.402.77zm-1.201 3.22c.353-.28.495-.7.495-1.26s-.142-.91-.495-1.19c-.353-.28-.848-.35-1.555-.42h-1.979v3.22h1.98c.635.07 1.2-.07 1.554-.35zm3.958-6.72h1.484v3.5h4.735v-3.5h1.484v8.26h-1.484v-3.43h-4.735v3.43h-1.484v-8.26zm16.253.77c.636.56.919 1.4.919 2.52v4.97h-1.414v-1.12c-.282.35-.636.7-1.06.91-.495.21-.99.28-1.625.28-.919 0-1.696-.21-2.261-.7-.566-.42-.849-1.05-.849-1.75s.283-1.33.778-1.75c.494-.42 1.413-.63 2.544-.63h2.402v-.28c0-.63-.212-1.12-.565-1.47-.353-.35-.919-.49-1.696-.49-.495 0-.99.07-1.413.21a3.26 3.26 0 00-1.201.63l-.636-1.12a3.6 3.6 0 011.554-.77c.566-.21 1.201-.28 1.908-.28 1.13 0 2.05.28 2.615.84zm-1.484 6.02c.424-.28.706-.63.918-1.05v-1.12H89.04c-1.273 0-1.909.42-1.909 1.26 0 .42.142.77.495.98.353.21.777.35 1.343.35.565 0 1.06-.14 1.484-.42zm11.802-6.79v8.26h-1.343V50.4h-2.544l-1.837 2.59h-1.626l2.05-2.8c-.636-.21-1.131-.49-1.414-.91-.353-.42-.494-.98-.494-1.61 0-.91.353-1.68.989-2.17s1.555-.77 2.685-.77h3.534zm-5.23 4.13c.354.28.848.42 1.555.42h2.332v-3.22h-2.261c-1.414 0-2.191.56-2.191 1.61 0 .56.212.98.565 1.19zm17.95-3.36c.636.56.919 1.4.919 2.52v4.97h-1.413v-1.12c-.283.35-.636.7-1.06.91-.495.21-.99.28-1.626.28-.918 0-1.696-.21-2.261-.7-.565-.42-.848-1.05-.848-1.75s.283-1.33.777-1.75c.495-.42 1.414-.63 2.544-.63h2.403v-.28c0-.63-.212-1.12-.565-1.47-.354-.35-.919-.49-1.696-.49a4.6 4.6 0 00-1.414.21c-.494.14-.848.35-1.201.63l-.636-1.12c.424-.35.919-.63 1.555-.77.565-.21 1.201-.28 1.908-.28 1.13 0 2.049.28 2.614.84zm-1.484 6.02c.424-.28.707-.63.919-1.05v-1.12h-2.332c-1.272 0-1.908.42-1.908 1.26 0 .42.141.77.495.98.353.21.777.35 1.342.35.566 0 1.06-.14 1.484-.42zm11.377-6.3c.636.35 1.131.84 1.484 1.47.354.63.566 1.33.566 2.17 0 .84-.212 1.54-.566 2.17a3.728 3.728 0 01-1.484 1.47c-.636.35-1.342.56-2.19.56-.566 0-1.131-.14-1.626-.35-.494-.21-.918-.56-1.272-.98V56h-1.484V44.73h1.414v1.33c.353-.42.777-.77 1.272-1.05.494-.21 1.06-.35 1.696-.35.848 0 1.554.21 2.19.56zm-.848 6.16c.424-.21.778-.56.99-1.05.212-.42.353-.98.353-1.54s-.141-1.05-.353-1.54c-.212-.42-.566-.77-.99-1.05a3.239 3.239 0 00-1.413-.35c-.495 0-.989.14-1.413.35-.424.21-.778.56-.99 1.05-.212.42-.353.91-.353 1.54 0 .56.141 1.05.353 1.54.212.42.566.77.99 1.05.424.28.918.35 1.413.35s.989-.07 1.413-.35zm10.246 1.61l-2.403-3.15-2.402 3.15h-1.696l3.25-4.2-3.109-3.99h1.696l2.261 2.94 2.262-2.94h1.625l-3.109 3.99 3.321 4.2h-1.696zm3.604-8.26h1.484v6.02l5.088-6.02h1.343v8.26h-1.484v-6.02l-5.088 6.02H137.8v-8.26h.07zm17.384 1.33h-3.038v6.93h-1.484v-6.93h-3.039v-1.33h7.561v1.33zm8.976 3.29h-6.713c.071.7.424 1.33.989 1.75.565.42 1.202.63 2.05.63.989 0 1.766-.35 2.402-.98l.848.98c-.353.42-.848.77-1.413.98-.566.21-1.201.35-1.837.35-.848 0-1.626-.21-2.332-.56a3.5 3.5 0 01-1.555-1.47 4.517 4.517 0 01-.565-2.17c0-.77.212-1.54.565-2.17.353-.63.848-1.12 1.484-1.47a4.347 4.347 0 012.12-.56c.777 0 1.484.21 2.12.56.636.35 1.131.84 1.484 1.47s.494 1.4.494 2.17c-.07.14-.07.28-.141.49zm-5.865-2.8c-.495.42-.777.98-.848 1.68h5.3c-.071-.7-.353-1.26-.848-1.68-.495-.42-1.06-.63-1.838-.63-.706 0-1.272.21-1.766.63zm11.164 2.94h-1.696v3.5h-1.484v-8.26h1.484v3.5h1.767l2.685-3.5h1.625l-3.18 3.99 3.392 4.27h-1.766l-2.827-3.5zm13.427-3.43h-3.039v6.93h-1.484v-6.93h-3.038v-1.33h7.561v1.33zm10.246-1.33l-4.028 9.03c-.353.84-.777 1.4-1.272 1.75-.495.35-1.06.49-1.696.49-.424 0-.777-.07-1.201-.21-.354-.14-.707-.35-.919-.56l.636-1.12c.424.42.919.63 1.484.63.353 0 .636-.07.919-.28.212-.21.494-.49.636-.98l.282-.56-3.674-8.19h1.554l2.898 6.58 2.897-6.58h1.484zm8.128.49c.636.35 1.13.84 1.484 1.47.353.63.565 1.33.565 2.17 0 .84-.212 1.54-.565 2.17a3.734 3.734 0 01-1.484 1.47 4.42 4.42 0 01-2.191.56c-.565 0-1.131-.14-1.625-.35-.495-.21-.919-.56-1.272-.98V56h-1.484V44.73h1.413v1.33c.353-.42.778-.77 1.272-1.05.495-.21 1.06-.35 1.696-.35.848 0 1.555.21 2.191.56zm-.848 6.16c.424-.21.777-.56.989-1.05.212-.42.353-.98.353-1.54s-.141-1.05-.353-1.54c-.212-.42-.565-.77-.989-1.05a3.242 3.242 0 00-1.413-.35c-.495 0-.99.14-1.414.35-.424.21-.777.56-.989 1.05-.212.42-.354.91-.354 1.54 0 .56.142 1.05.354 1.54.212.42.565.77.989 1.05.424.28.919.35 1.414.35.494 0 .989-.07 1.413-.35zm10.598-5.88c.636.56.919 1.4.919 2.52v4.97h-1.413v-1.12c-.283.35-.636.7-1.06.91-.495.21-.99.28-1.626.28-.918 0-1.696-.21-2.261-.7-.565-.42-.848-1.05-.848-1.75s.283-1.33.777-1.75c.495-.42 1.414-.63 2.544-.63h2.403v-.28c0-.63-.212-1.12-.565-1.47-.354-.35-.919-.49-1.696-.49a4.6 4.6 0 00-1.414.21c-.494.14-.848.35-1.201.63l-.636-1.12c.424-.35.919-.63 1.555-.77.565-.21 1.201-.28 1.908-.28 1.13 0 1.978.28 2.614.84zm-1.484 6.02c.424-.28.707-.63.919-1.05v-1.12h-2.332c-1.272 0-1.908.42-1.908 1.26 0 .42.141.77.495.98.353.21.777.35 1.342.35.566 0 1.06-.14 1.484-.42zm-78.579-18.55h2.614L118.367.072h-2.473l-15.264 32.9h2.615l4.946-10.78h17.879l4.947 10.78zm-21.836-12.879l7.914-17.36 7.986 17.36h-15.9z"/></svg><svg viewBox="0 0 64 64" id="vr-1" xmlns="http://www.w3.org/2000/svg"><path fill-rule="evenodd" clip-rule="evenodd" d="M63.396 52.635l-15.158-7.098c-.015-.017-.032-.031-.049-.046a1.242 1.242 0 00-.127-.11c-.01-.01-.02-.02-.03-.027a.449.449 0 00-.074-.037l-.035-.016c-.02-.01-.036-.026-.056-.035l-7.51-3.23-11.949-5.138 3.3-1.104 8.016 3.33h.001l21.99 9.13a1.05 1.05 0 00.982-.097c.29-.196.465-.524.465-.875V13.658a1.05 1.05 0 00-.646-.971l-8.377-3.48h-.001L32.148.078a1.017 1.017 0 00-.243-.066h-.002a1.05 1.05 0 00-.467.04h-.01c-.004 0-.007 0-.01.002L0 10.56l.663 1.993L30.699 2.506v31.41l-4.188 1.4v-9.049a1.045 1.045 0 00-1.352-1.006L1.073 32.617a1.05 1.05 0 00-.742 1.005v16.813c0 .404.231.773.595.947l11.14 5.347-4.838 2.206a1.052 1.052 0 00-.015 1.906l6.288 2.99.896-1.9-4.25-2.02 4.384-1.998 10.479 5.029c.02.01.04.015.059.02a.417.417 0 01.034.01l.01.004a.95.95 0 00.278.058c.012 0 .024.003.035.005a.201.201 0 00.037.005.073.073 0 00.017-.003.404.404 0 01.235-.035.273.273 0 00.048-.01c.017-.005.033-.012.05-.019l.03-.013a.054.054 0 01.016-.003l.008-.001a.037.037 0 00.008-.002l21.99-9.457c.387-.164.637-.544.637-.965V47.98l11.947 5.595-18.664 8.513.867 1.912 20.734-9.457a1.05 1.05 0 00.01-1.908zm-8.611-14.81V11.752l6.283 2.608v31.35l-6.283-2.61v-5.275zm-2.095 4.406l-9.722-4.037 5.46-1.368 4.262 1.71v3.695zm-7.33-6.802v-8.341l2.094-.526v8.341l-2.094.526zm4.189-.416v-8.245l1.57.63 1.571.631v8.244l-3.141-1.26zm3.141-9.247l-1.57-.63-1.571-.631v-1.94l3.141 1.261v1.94zM41.171 6.099l11.52 4.783v10.68l-3.142-1.26V16.81h-2.095v3.383l-6.283 1.576V6.099zm0 17.836l6.283-1.576v2.037l-6.283 1.576v-2.037zm0 4.203l2.095-.525v8.341l-2.095.525v-8.34zM32.794 2.621l6.283 2.609v31.349l-6.283-2.609V2.62zm-7.391 35.27l11.908 5.122-18.707 8.22L4.26 44.346l1.61-.491 6.285-1.919 2.676-.817 1.512-.462h.002l6.283-1.918 2.775-.848zM6.614 41.434v-2.85l4.189-1.4v2.97l-4.189 1.28zm10.472-3.198v-2.804l4.189-1.4v2.924l-1.746.533-2.443.747zm-14.66-3.834l21.99-6.715v8.311l-1.047.32v-3.745a1.05 1.05 0 00-1.378-.998l-6.283 2.102a1.05 1.05 0 00-.716.997v4.201l-2.095.64v-3.79a1.048 1.048 0 00-1.378-.997l-6.283 2.101a1.05 1.05 0 00-.716.997v4.248l-2.095.639V34.4zm21.99 25.924l-9.42-4.521h-.001l-12.57-6.031v-3.975L24.416 56.35v3.975zm1.072-5.79l-4.39-2.106 18.851-8.281 4.847 2.084-19.308 8.303zm20.92-2.691L26.51 60.4v-4.018l19.896-8.556v4.018zM22.933 8.603a1.045 1.045 0 00-.943-.145L3.14 14.762a1.05 1.05 0 00-.716.997v12.61a1.051 1.051 0 001.048 1.05c.11 0 .223-.018.33-.053l18.85-6.305a1.05 1.05 0 00.716-.997V9.454c0-.337-.161-.654-.434-.851zm-1.66 12.704L4.52 26.911V16.517l16.755-5.604v10.394zM13.66 18.76l3.73-3.745 1.481 1.486-4.188 4.203c-.28.28-.696.38-1.072.255l-2.655-.888-2.716 1.816-1.16-1.747 3.142-2.102c.269-.18.605-.223.912-.122l2.527.845z"/><defs><linearGradient id="fa" x1="64" y1="28.07" x2="0" y2="28.07" gradientUnits="userSpaceOnUse"><stop stop-color="#9281CE"/><stop offset="1" stop-color="#68DBFF"/></linearGradient></defs></svg><svg viewBox="0 0 64 64" id="vr-2" xmlns="http://www.w3.org/2000/svg"><path fill-rule="evenodd" clip-rule="evenodd" d="M61.598 57.43l.535 3.129a2.938 2.938 0 01-.652 2.395A2.94 2.94 0 0159.23 64H4.945a2.94 2.94 0 01-2.25-1.046 2.94 2.94 0 01-.653-2.395l1.281-7.499a9.754 9.754 0 015.18-7.02V20.72a3.221 3.221 0 013.219-3.22h1.46v-3.123c0-1.064.866-1.93 1.93-1.93h.964c.231-.647.83-1.12 1.541-1.171.344-2.513 1.431-4.865 3.11-6.7C24.868.057 30.953.004 31.275 0h1.632c.34 0 6.412.067 10.542 4.578 1.68 1.834 2.767 4.186 3.11 6.698.71.053 1.306.526 1.537 1.17h.963c1.064 0 1.93.867 1.93 1.931V22.5c0 1.064-.866 1.93-1.93 1.93h-.963a1.775 1.775 0 01-1.669 1.175h-.437l-.033.595a12.65 12.65 0 01-2.172 6.414c-.761 1.119-2.565 2.94-4.294 4.492v3.248c0 1.114.813 2.11 1.54 2.257l1.13.24 11.674 2.48a9.745 9.745 0 017.018 7.728.937.937 0 11-1.848.317 7.862 7.862 0 00-5.589-6.216l-11.25-2.391a18.007 18.007 0 01-10.077 3.066c-3.61 0-7.087-1.06-10.078-3.066l-11.25 2.39a7.71 7.71 0 00-.788.27.925.925 0 01-.336.144 7.87 7.87 0 00-4.465 5.803l-1.28 7.498c-.055.317.03.626.236.871.207.245.497.38.818.38h6.572l1.173-7.212a.938.938 0 011.85.3l-1.124 6.912H50.76l-1.125-6.911a.937.937 0 111.85-.301l1.174 7.212h6.572c.32 0 .611-.135.818-.38.207-.245.29-.554.237-.87l-.535-3.129a.938.938 0 011.848-.316zm-12.54-43.108h-.86v8.233h.86c.03 0 .055-.025.055-.056v-8.122a.056.056 0 00-.056-.055zM32.087 45.96c2.67 0 5.26-.647 7.59-1.885-1.293-.754-2.064-2.36-2.064-3.721V38.7c-.768.612-1.41 1.06-1.778 1.218a9.556 9.556 0 01-3.748.762 9.57 9.57 0 01-3.75-.762c-.367-.157-1.009-.605-1.777-1.218v1.653c0 1.36-.769 2.964-2.067 3.72a16.134 16.134 0 007.594 1.886zm-.812-44.085c-.056 0-5.575.048-9.165 3.968-1.365 1.49-2.268 3.389-2.598 5.428H44.66c-.328-2.038-1.232-3.937-2.596-5.427-3.599-3.93-9.081-3.969-9.163-3.969h-1.626zM18.462 13.146h-.615V23.73h4.371a.937.937 0 110 1.875h-2.154l.027.489c.11 1.96.75 3.85 1.85 5.464.57.837 1.993 2.33 3.715 3.897a56.786 56.786 0 00.6.538c1.505 1.329 2.536 2.08 2.818 2.2a7.717 7.717 0 006.027 0c.86-.365 5.78-4.647 7.133-6.634a10.776 10.776 0 001.85-5.464l.027-.49h-8.219c-.842 0-1.667-.23-2.388-.666a2.739 2.739 0 00-2.838 0 4.619 4.619 0 01-2.388.666h-1.693a.938.938 0 010-1.875h1.693c.5 0 .99-.137 1.419-.396a4.608 4.608 0 014.776 0c.429.26.92.396 1.42.396h10.43V13.146h-27.86zm-3.349 1.176a.056.056 0 00-.056.055V22.5c0 .03.025.056.056.056h.859v-8.233h-.859zm-3.391 5.054c-.741 0-1.344.602-1.344 1.343v24.605l11.636-2.473 1.12-.238c.738-.148 1.552-1.145 1.552-2.26v-3.247c-1.73-1.551-3.533-3.373-4.295-4.492A12.651 12.651 0 0118.22 26.2l-.034-.594h-.442c-.768 0-1.423-.49-1.668-1.175h-.963a1.933 1.933 0 01-1.93-1.931v-3.123h-1.461zm23.06-3.59a.441.441 0 01-.015-.082c0-.257.378-.434.66-.434.176 0 .313.056.353.21l1.232 4.36 1.223-4.36c.04-.154.177-.21.354-.21.282 0 .66.185.66.434 0 .02-.005.039-.011.062l-.006.02-1.544 5.06c-.073.242-.37.355-.676.355-.306 0-.596-.113-.676-.354l-1.553-5.062zm5.022-.194c0-.169.137-.322.338-.322h1.593c1.055 0 1.908.403 1.908 1.682 0 .925-.451 1.424-1.055 1.61l1.055 1.955a.22.22 0 01.04.129c0 .266-.346.547-.652.547-.145 0-.282-.089-.362-.25l-1.143-2.22h-.676v2.1c0 .217-.257.33-.523.33-.258 0-.523-.113-.523-.33v-5.23zm1.046.595v1.714h.885c.523 0 .861-.217.861-.853 0-.635-.338-.86-.86-.86h-.886z"/><defs><linearGradient id="ga" x1="62.175" y1="28.07" x2="2" y2="28.07" gradientUnits="userSpaceOnUse"><stop stop-color="#9281CE"/><stop offset="1" stop-color="#68DBFF"/></linearGradient></defs></svg><svg viewBox="0 0 64 64" id="vr-3" xmlns="http://www.w3.org/2000/svg"><path d="M61.059 35.07h-1.067v-.064c0-3.915-2.526-7.248-6.033-8.462a4.952 4.952 0 00-4.925-4.5H36.946V5.952c0-1.07-.87-1.94-1.94-1.94h-6.012c-1.07 0-1.94.87-1.94 1.94v13.022a.938.938 0 001.876 0V5.952c0-.036.028-.065.064-.065h6.012c.036 0 .065.029.065.065v16.092H14.966a4.952 4.952 0 00-4.925 4.5c-3.507 1.214-6.033 4.547-6.033 8.462v.065H2.942A2.945 2.945 0 000 38.012v4.008a2.945 2.945 0 002.942 2.942h1.066v4.072c0 4.937 4.017 8.954 8.954 8.954h38.076c4.937 0 8.954-4.017 8.954-8.954v-4.072h1.066A2.945 2.945 0 0064 42.02v-4.008a2.945 2.945 0 00-2.941-2.941zM2.942 43.088a1.068 1.068 0 01-1.067-1.067v-4.008c0-.588.478-1.066 1.067-1.066h1.066v6.14H2.941zm55.175 5.947a7.087 7.087 0 01-7.079 7.079H12.962a7.087 7.087 0 01-7.079-7.079V35.006a7.087 7.087 0 017.079-7.079h31.062a.938.938 0 000-1.875H12.962c-.316 0-.628.017-.935.05a3.076 3.076 0 012.939-2.183h34.068c1.385 0 2.557.921 2.94 2.182a9.027 9.027 0 00-.935-.049h-3.006a.938.938 0 000 1.875h3.005a7.087 7.087 0 017.08 7.079l-.001 14.028zm4.008-7.014c0 .588-.478 1.067-1.066 1.067h-1.067v-6.142h1.067c.588 0 1.066.479 1.066 1.067v4.008z"/><path d="M11.96 48.097a2.945 2.945 0 00-2.942 2.941 2.945 2.945 0 002.942 2.942 2.945 2.945 0 002.941-2.942 2.945 2.945 0 00-2.941-2.941zm0 4.008a1.068 1.068 0 010-2.133 1.068 1.068 0 010 2.133zM11.96 30.06a2.945 2.945 0 00-2.942 2.942 2.945 2.945 0 002.942 2.941 2.945 2.945 0 002.941-2.941 2.945 2.945 0 00-2.941-2.942zm0 4.009a1.068 1.068 0 010-2.134 1.068 1.068 0 010 2.133zM52.04 48.097a2.945 2.945 0 00-2.941 2.941 2.945 2.945 0 002.941 2.942 2.945 2.945 0 002.942-2.942 2.945 2.945 0 00-2.942-2.941zm0 4.008a1.068 1.068 0 010-2.133 1.068 1.068 0 010 2.133zM52.04 30.06a2.945 2.945 0 00-2.941 2.942 2.945 2.945 0 002.941 2.941 2.945 2.945 0 002.942-2.941 2.945 2.945 0 00-2.942-2.942zm0 4.009a1.068 1.068 0 010-2.134 1.068 1.068 0 010 2.133zM30.325 37.134a.937.937 0 00-1.207.549l-2.48 6.612a1.232 1.232 0 01-2.304 0l-2.478-6.612a.937.937 0 10-1.756.658l2.48 6.612a3.118 3.118 0 002.91 2.013 3.116 3.116 0 002.904-2.013l2.48-6.612a.938.938 0 00-.549-1.207zM42.958 40.016a2.945 2.945 0 00-2.942-2.941h-6.012a.938.938 0 00-.938.937v8.016a.938.938 0 001.875 0V38.95h5.075a1.068 1.068 0 010 2.133H38.03a1.297 1.297 0 00-.81 2.306l4.214 3.371a.933.933 0 001.318-.146.938.938 0 00-.146-1.318l-2.924-2.338h.334a2.945 2.945 0 002.942-2.942z"/><defs><linearGradient id="ha" x1="64" y1="27.686" x2="0" y2="27.686" gradientUnits="userSpaceOnUse"><stop stop-color="#9281CE"/><stop offset="1" stop-color="#68DBFF"/></linearGradient><linearGradient id="hb" x1="14.901" y1="50.677" x2="9.018" y2="50.677" gradientUnits="userSpaceOnUse"><stop stop-color="#9281CE"/><stop offset="1" stop-color="#68DBFF"/></linearGradient><linearGradient id="hc" x1="14.901" y1="32.641" x2="9.018" y2="32.641" gradientUnits="userSpaceOnUse"><stop stop-color="#9281CE"/><stop offset="1" stop-color="#68DBFF"/></linearGradient><linearGradient id="hd" x1="54.982" y1="50.677" x2="49.099" y2="50.677" gradientUnits="userSpaceOnUse"><stop stop-color="#9281CE"/><stop offset="1" stop-color="#68DBFF"/></linearGradient><linearGradient id="he" x1="54.982" y1="32.641" x2="49.099" y2="32.641" gradientUnits="userSpaceOnUse"><stop stop-color="#9281CE"/><stop offset="1" stop-color="#68DBFF"/></linearGradient><linearGradient id="hf" x1="30.934" y1="41.413" x2="20.04" y2="41.413" gradientUnits="userSpaceOnUse"><stop stop-color="#9281CE"/><stop offset="1" stop-color="#68DBFF"/></linearGradient><linearGradient id="hg" x1="42.958" y1="41.413" x2="33.066" y2="41.413" gradientUnits="userSpaceOnUse"><stop stop-color="#9281CE"/><stop offset="1" stop-color="#68DBFF"/></linearGradient></defs></svg><svg viewBox="0 0 64 64" id="vr-4" xmlns="http://www.w3.org/2000/svg"><path fill-rule="evenodd" clip-rule="evenodd" d="M14.902 26.4H8.666A4.672 4.672 0 014 21.733V8.667A4.672 4.672 0 018.667 4h18.666A4.672 4.672 0 0132 8.667v13.066a4.672 4.672 0 01-4.667 4.667H21.94l.709 3.547a.933.933 0 01-1.457.945l-6.29-4.492zM8.666 5.867a2.8 2.8 0 00-2.8 2.8v13.066a2.8 2.8 0 002.8 2.8H15.2a.927.927 0 01.54.178l4.612 3.295-.467-2.353a.933.933 0 01.915-1.12h6.533a2.8 2.8 0 002.8-2.8V8.667a2.8 2.8 0 00-2.8-2.8H8.667zm49.461.83l1.867 16.8a.933.933 0 01-.268.763l-1.509 1.508 1.718 8.048a3.154 3.154 0 11-6.217 1.022l-.593-3.978-.866.867-1.32-1.32 1.845-1.845-.392-2.634a.906.906 0 01-.133.198l-2.8 2.8-1.32-1.32 2.14-2.14L38.533 13.72l-4.006 4.007-1.32-1.32 4.666-4.667a.933.933 0 011.32 0l13.032 13.028-1.443-9.706a2.813 2.813 0 111.876-.071l1.774 11.929 3.662-3.663L56.36 7.644 40.743 5.91l-6.216 6.216-1.32-1.32 6.533-6.533a.944.944 0 01.763-.268l16.8 1.867a.934.934 0 01.825.825zM52.533 12.4a.933.933 0 10-1.866 0 .933.933 0 001.866 0zm5.13 23.032c.364-.3.535-.774.445-1.237l-1.457-6.855-1.878 1.878.795 5.367a1.286 1.286 0 002.095.847zM24.26 59.727a.934.934 0 01-1.32 0L4.273 41.06a.934.934 0 010-1.32l11.2-11.2 1.32 1.32L6.253 40.4 23.6 57.747l4.007-4.007 1.32 1.32-4.667 4.666zM10.808 40.3l6.066-6.066 1.32 1.32-6.066 6.066-1.32-1.32zm8.958-3.173l-6.067 6.066 1.32 1.32 6.067-6.066-1.32-1.32zm-3.173 8.96l3.547-3.547 1.32 1.32-3.547 3.546-1.32-1.32zm5.414.373l-2.52 2.52 1.32 1.32 2.52-2.52-1.32-1.32zm.373 5.413l1.867-1.866 1.32 1.32-1.867 1.866-1.32-1.32zm24.05.543a14.838 14.838 0 01-8.83 2.917 14.919 14.919 0 1112.674-7.074l.12-.119 6.886 6.887a2.913 2.913 0 01-4.12 4.12l-6.73-6.731zm9.53 5.411a1.047 1.047 0 000-1.48l-6.675-6.675a15.02 15.02 0 01-1.418 1.542l6.613 6.613a1.047 1.047 0 001.48 0zM50.668 40.4c0-7.217-5.85-13.067-13.067-13.067-7.213.008-13.059 5.854-13.067 13.067 0 7.216 5.85 13.067 13.067 13.067 7.216 0 13.067-5.85 13.067-13.067zM37.6 51.6c6.186 0 11.2-5.014 11.2-11.2 0-6.186-5.014-11.2-11.2-11.2-6.186 0-11.2 5.014-11.2 11.2.007 6.183 5.017 11.193 11.2 11.2zm0-20.534a9.333 9.333 0 019.333 9.334 9.333 9.333 0 01-9.333 9.333 9.333 9.333 0 01-9.333-9.333 9.343 9.343 0 019.333-9.333zm-28.933-8.4h19.6V20.8H9.6v-2.49l1.867-2.488 2.053 2.738a.993.993 0 00.772.373.933.933 0 00.751-.415l3.04-4.56 3.866 4.64a.94.94 0 00.718.335.646.646 0 00.088 0 .933.933 0 00.728-.476l4.666-8.4-1.631-.905-4.006 7.21-3.794-4.556a.917.917 0 00-.768-.34.934.934 0 00-.726.415l-3.002 4.504-2.009-2.679a.966.966 0 00-1.493 0L9.6 15.2V8.667H7.733v13.066c0 .516.418.933.934.933zm28.067 21.909h2.312v-1.457h-2.312v-.768h2.269c1.167-.015 2.079-.309 2.734-.883.656-.58.984-1.376.984-2.39 0-.996-.345-1.792-1.034-2.39-.689-.603-1.61-.905-2.763-.905h-3.998v5.11h-1.472v1.458h1.472v.768h-1.472v1.457h1.472v1.658h1.808v-1.658zm2.161-3.682h-2.16v-3.647h2.268c.593.015 1.057.192 1.392.532.34.34.51.777.51 1.313 0 .598-.172 1.048-.517 1.35-.345.3-.842.452-1.493.452z"/><defs><linearGradient id="ia" x1="60.001" y1="28.561" x2="4" y2="28.561" gradientUnits="userSpaceOnUse"><stop stop-color="#9281CE"/><stop offset="1" stop-color="#68DBFF"/></linearGradient></defs></svg><svg viewBox="0 0 64 64" id="vr-5" xmlns="http://www.w3.org/2000/svg"><path fill-rule="evenodd" clip-rule="evenodd" d="M23.701 6.31c-10.74 1.371-18.86 4.872-21.559 9.293C1.002 17.473 1 17.497 1 34.886c0 15.766.082 17.564.87 19.034.883 1.648 4.97 5.058 6.087 5.08.462.01.61-1.843.61-7.64v-7.653l2.563-1.026c12.031-4.817 29.566-4.813 41.74.01l2.563 1.016v7.653c0 5.797-.433 7.64.61 7.64 1.118-.022 5.204-3.432 6.087-5.08.788-1.47.87-3.27.87-19.07V17.5c-.45-.85-1.296-2.093-1.296-2.093C59 12 53.252 8.724 44.59 7.029c-4.965-.972-15.946-1.35-20.89-.719zm17.237 1.981C53.916 10.2 61.939 15.041 60.94 20.36c-.16.86-1.26 2.285-2.878 3.73l-2.618 2.34-.006 7.685c-.003 4.227-.19 7.473-.414 7.213-.224-.26-1.792-5.733-3.484-12.163-1.691-6.43-3.21-11.84-3.375-12.024-.165-.184-1.618 1.88-3.229 4.587s-3.05 4.929-3.198 4.936c-.148.008-.765-1.026-1.37-2.296-.606-1.27-1.265-2.11-1.464-1.865-.2.244-2.398 3.607-4.884 7.472l-4.523 7.028-3.02.323c-1.662.178-3.955.454-5.096.615-2.489.35-2.791-.539-.854-2.512.964-.983 1.22-1.747 1.22-3.643 0-3.134-1.006-4.61-3.141-4.61-.892 0-1.91.353-2.262.786-.394.485-1.106.695-1.856.549-3.898-.76-6.01 5.093-3.013 8.344 1.564 1.695 1.289 3.116-.772 3.994-.972.414-1.851.753-1.953.753-.101 0-.187-3.414-.19-7.587l-.006-7.586-2.618-2.339C4.32 22.645 3.22 21.22 3.06 20.36c-.97-5.169 6.31-9.786 18.689-11.854 4.64-.776 14.618-.887 19.19-.215zm.826 2.93c0 .712.313 1.03 1.012 1.03.698 0 .961-.267.849-.864-.245-1.296-1.861-1.441-1.861-.166zm3.732.774c-.208.55.427.944 2.51 1.555 1.535.45 3.592 1.231 4.573 1.735 1.581.814 1.817.83 2.075.146.16-.426.29-.864.29-.974 0-.477-7.292-3.182-8.612-3.195-.307-.003-.683.327-.836.733zm-33.001.714c-1.196.494-2.251 1.132-2.345 1.418-.29.886.853 1.231 2.23.673.722-.292 1.913-.754 2.646-1.026.907-.337 1.242-.739 1.046-1.257-.36-.956-.866-.929-3.577.192zm13.647-.208c0 .414.434.746.976.746.543 0 .977-.332.977-.746 0-.415-.434-.746-.977-.746-.542 0-.976.331-.976.746zm-4.828 1.426c-.422.518-.373.833.205 1.322.933.789 1.974-.043 1.53-1.223-.362-.96-1.004-.997-1.735-.1zm9.768-.006c-.425.522-.398.822.115 1.256.512.433.807.405 1.233-.117.425-.522.398-.822-.115-1.256-.513-.433-.807-.405-1.233.117zm-24.19 1.757c-.443.731 1.141 1.794 1.75 1.173.288-.293.376-.776.195-1.074-.395-.651-1.573-.712-1.945-.1zm18.427.049c-2.201.926-2.862 4.71-1.13 6.474 1.22 1.244 3.916 1.307 5.314.124.566-.478 1.16-1.561 1.32-2.406.525-2.771-2.822-5.32-5.504-4.192zm3.166 2.096c.81.827.732 2.168-.181 3.099-1.005 1.024-1.473.986-2.65-.213-1.177-1.2-1.215-1.677-.21-2.701.914-.93 2.23-1.01 3.041-.185zm-23.532.267c-.16.163-.292.731-.292 1.262 0 .676.232.875.773.664.424-.166.864-.302.976-.302.112 0 .204-.312.204-.693 0-.75-1.186-1.416-1.66-.931zm14.354 1.09c0 .712.314 1.031 1.012 1.031.699 0 .962-.268.85-.865-.246-1.296-1.862-1.441-1.862-.166zm13.67.036c0 .553.325.995.732.995.406 0 .732-.442.732-.995 0-.552-.326-.995-.732-.995-.407 0-.733.443-.733.995zM6.65 21.411c-.491.603-.252.96 1.382 2.06 1.086.734 2.31 1.202 2.72 1.042 1.056-.413.922-1.065-.354-1.727a18.706 18.706 0 01-2.127-1.337c-.9-.672-1.101-.676-1.621-.038zm43.383 9.232c1.35 5.033 2.382 9.226 2.292 9.318-.09.091-1.57-.206-3.288-.659-1.718-.453-4.804-1.073-6.858-1.377-2.054-.303-3.78-.776-3.836-1.05-.098-.471 8.888-15.735 9.123-15.496.061.062 1.216 4.231 2.567 9.264zm-28.555-6.906c-.503.83.628 1.78 1.302 1.094.563-.574.21-1.635-.544-1.635-.237 0-.578.243-.758.54zm9.273.004c-.182.3-.012.87.379 1.269.621.632.786.63 1.32-.026.336-.413.469-.983.295-1.269-.412-.68-1.575-.665-1.994.026zM6.614 41.73V56.2l-1.267-1.206c-2.574-2.45-2.638-2.873-2.638-17.39V24.107l1.952 1.576 1.953 1.576v14.47zm54.162 10.384c-.293.72-1.175 1.937-1.961 2.705l-1.43 1.395V27.272l1.832-1.497 1.83-1.497.13 13.263c.087 8.737-.05 13.71-.4 14.573zm-34.634-25.97c0 .712.313 1.032 1.012 1.032.698 0 .962-.269.849-.866-.245-1.296-1.861-1.44-1.861-.166zm14.14 2.461c.01.376-1.026 2.441-2.302 4.589-2.242 3.777-2.38 3.905-4.19 3.918-1.03.006-1.798-.169-1.709-.39.09-.22 1.682-2.815 3.54-5.765 3.26-5.179 3.398-5.324 4.01-4.2.349.64.641 1.472.651 1.848zm-20.487 3.047c0 2.62-.885 3.505-2.182 2.182-1.555-1.584-.354-5.554 1.464-4.843.494.193.718 1.025.718 2.662zm-5.46-1.062c.414.268.587 1.189.488 2.6-.118 1.672-.37 2.227-1.072 2.363-.504.097-1.105-.125-1.335-.494-.614-.988-.52-3.614.154-4.302.688-.7.906-.722 1.765-.167zm3.02 6.76c0 1.125-.812 1.764-2.238 1.764-1.023 0-.841-.992.407-2.22 1.295-1.273 1.83-1.14 1.83.455zm13.18 4.288c0 .712.264.98.85.865 1.272-.25 1.414-1.896.162-1.896-.698 0-1.012.319-1.012 1.03zm-8.05-.09c-1.317.204-2 .584-2.11 1.173-.178.95.65 1.092 3.265.56 1.058-.216 1.525-.597 1.525-1.244 0-.513-.164-.901-.366-.862-.201.039-1.243.206-2.314.373zm14.397.418c0 .837.436 1.04 2.807 1.314 1.544.178 3.968.581 5.386.897 1.992.444 2.714.438 3.17-.026.46-.47.442-.694-.087-1.027-.75-.472-4.773-1.312-8.713-1.818-2.342-.302-2.563-.245-2.563.66zM15.89 43.591c0 .999.744 1.245 2.126.705 1.103-.431.388-1.7-.958-1.7-.843 0-1.168.278-1.168.995zm-3.268.323c-.889.365-.174 1.667.915 1.667.633 0 .906-.282.802-.83-.172-.903-.805-1.212-1.717-.837zm37.595.482c-.163.434.01.986.385 1.228 1.042.672 1.414.544 1.414-.487 0-1.213-1.403-1.79-1.799-.74z"/><defs><linearGradient id="ja" x1="63" y1="29.246" x2="1" y2="29.246" gradientUnits="userSpaceOnUse"><stop stop-color="#9281CE"/><stop offset="1" stop-color="#68DBFF"/></linearGradient></defs></svg><svg viewBox="0 0 64 64" id="vr-6" xmlns="http://www.w3.org/2000/svg"><path fill-rule="evenodd" clip-rule="evenodd" d="M49.999 3.5H57c3.859 0 7 3.141 7 7v28c0 3.859-3.141 7-7 7a1 1 0 01-1-1v-11h-5.921c-.011 0-.022.003-.033.006-.014.003-.028.006-.042.006-.005 0-.01 0-.015-.002-.012-.003-.023-.01-.035-.01H44v5.005c0 1.08-.157 2.123-.427 3.12a.243.243 0 01-.013.056c-.003.01-.007.021-.009.032A12.039 12.039 0 0138 48.879v2.625l2.999-.002H41c3.859 0 7 3.141 7 7v.998a1 1 0 11-2 0v-.998c0-2.757-2.243-5-5-5l-3.999.002H26.999L23 53.502c-2.757 0-5 2.243-5 5v.998a1 1 0 11-2 0v-.998c0-3.859 3.141-7 7-7h.001l2.999.002v-2.625a12.035 12.035 0 01-5.561-7.204c-.005-.017-.01-.033-.012-.05a11.903 11.903 0 01-.427-3.12V33.5H8v11a1 1 0 01-1 1c-3.859 0-7-3.141-7-7v-28c0-3.859 3.141-7 7-7h42.999zM25.583 46.161A9.95 9.95 0 0032 48.502a9.95 9.95 0 006.417-2.341c-1.669.77-3.782 1.341-6.417 1.341s-4.748-.571-6.417-1.341zM42 38.502v-5.998c0-5.514-4.486-10-10-10s-10 4.486-10 10v5.998c0 .905.132 1.777.358 2.612.516.745 3.357 4.388 9.642 4.388 6.268 0 9.142-3.674 9.643-4.389.225-.834.357-1.707.357-2.611zm-2.997-19.303l-1.828 2.494c3.743 1.8 6.413 5.475 6.774 9.807h4.072l-9.018-12.301zM2 15.39V38.5a5.009 5.009 0 004 4.899V17.42a6.98 6.98 0 01-4-2.03zm5 .11a1 1 0 011 1v15h5.001v-26H7c-2.757 0-5 2.243-5 5s2.243 5 5 5zm28.235 5.459l2.96-4.04c.05-.053.328-.342.781-.353.485-.011.789.303.835.353l9.188 12.532V5.5H15.002v26h5.05c.512-6.148 5.671-10.996 11.949-10.996 1.122 0 2.203.166 3.234.455zM28 49.802v1.702h8v-1.702c-1.253.445-2.596.7-4 .7s-2.747-.255-4-.7zm30-6.404a5.007 5.007 0 004-4.898V15.39a6.986 6.986 0 01-4 2.03v25.978zM56 16.5a1 1 0 011-1c2.757 0 5-2.243 5-5s-2.243-5-5-5h-6.001v26H56v-15zm-30.997-3.996c0 1.654-1.346 3-3 3s-3-1.346-3-3 1.346-3 3-3 3 1.346 3 3zm-2 0a1 1 0 10-2 0 1 1 0 002 0z"/><defs><linearGradient id="ka" x1="64" y1="28.5" x2="0" y2="28.5" gradientUnits="userSpaceOnUse"><stop stop-color="#9281CE"/><stop offset="1" stop-color="#68DBFF"/></linearGradient></defs></svg></svg>